# xmcd
#
# Track frame offsets: 
#        182
#        15377
#        30607
#        45865
#        63465
#        75395
#        91052
#        105600
#        120365
#        136802
#        154120
#        166515
#
# Disc length: 2440 seconds
#
# Revision: 0
# Processed by: cddbd v1.5.1PL2 Copyright (c) Steve Scherf et al.
# Submitted via: ExactAudioCopy v0.95b3
#
DISCID=7509860c
DTITLE=Various Artist - Heartbreak Hotel
DYEAR=1988
DGENRE=Country
TTITLE0=Gene Watson - Love in the hot afternoon
TTITLE1=Merle Haggard - It's not love (but it's ok)
TTITLE2=Jessie Colter - I'm not LISA
TTITLE3=Ed Bruce - Mammas don't let your babies grow up to be cowboys
TTITLE4=Crystal Gayle - Don't it make my brown eyes blue
TTITLE5=Freddie Hart - Why lovers turn to strangers
TTITLE6=Mel McDaniel - Who's been sleeping in my bed
TTITLE7=Asleep at the wheel - The letter that Johnny Walker read
TTITLE8=Billy Jo Spears - Blanket on the ground
TTITLE9=The nitty gritty dirt band - (All i have to do is) Dream
TTITLE10=Glen Campbell - By the time i get to Phoenix
TTITLE11=Dottie West - I'm so lonesome i could cry
EXTD=
EXTT0=
EXTT1=
EXTT2=
EXTT3=
EXTT4=
EXTT5=
EXTT6=
EXTT7=
EXTT8=
EXTT9=
EXTT10=
EXTT11=
PLAYORDER=
